<svg width="33" height="32" viewBox="0 0 33 32" fill="none" xmlns="http://www.w3.org/2000/svg">
<g clip-path="url(#clip0_399_1727)">
<path d="M12.3749 1C12.3749 0.734784 12.4836 0.48043 12.677 0.292893C12.8704 0.105357 13.1327 0 13.4062 0L19.5937 0C19.8672 0 20.1295 0.105357 20.3229 0.292893C20.5163 0.48043 20.6249 0.734784 20.6249 1C20.6249 1.26522 20.5163 1.51957 20.3229 1.70711C20.1295 1.89464 19.8672 2 19.5937 2H18.5624V4.14C21.3711 4.53315 23.9981 5.72014 26.1152 7.55267C28.2323 9.3852 29.7455 11.782 30.466 14.4437C31.1864 17.1054 31.082 19.9139 30.1659 22.5184C29.2498 25.1229 27.5626 27.408 25.315 29.088L26.5546 30.292C26.7482 30.4795 26.8571 30.7339 26.8573 30.9993C26.8575 31.2647 26.749 31.5192 26.5556 31.707C26.3623 31.8948 26.0999 32.0004 25.8262 32.0006C25.5526 32.0007 25.2901 31.8955 25.0964 31.708L23.5578 30.216C21.4024 31.3891 18.9716 32.0036 16.4999 32C14.0283 32.0036 11.5974 31.3891 9.44205 30.216L7.90342 31.708C7.80754 31.8008 7.69374 31.8745 7.56851 31.9247C7.44329 31.9749 7.3091 32.0006 7.1736 32.0006C7.0381 32.0005 6.90394 31.9745 6.77879 31.9241C6.65364 31.8738 6.53995 31.8 6.4442 31.707C6.34845 31.614 6.27253 31.5037 6.22077 31.3822C6.169 31.2608 6.14241 31.1307 6.1425 30.9993C6.1427 30.7339 6.25159 30.4795 6.44523 30.292L7.68686 29.088C5.43932 27.4081 3.75207 25.1232 2.83587 22.5189C1.91967 19.9145 1.81514 17.1061 2.53533 14.4445C3.25553 11.7829 4.76853 9.386 6.88532 7.55334C9.00212 5.72068 11.6289 4.53347 14.4374 4.14V2H13.4062C13.1327 2 12.8704 1.89464 12.677 1.70711C12.4836 1.51957 12.3749 1.26522 12.3749 1ZM17.5312 11C17.5312 10.7348 17.4225 10.4804 17.2291 10.2929C17.0357 10.1054 16.7734 10 16.4999 10C16.2264 10 15.9641 10.1054 15.7707 10.2929C15.5773 10.4804 15.4687 10.7348 15.4687 11V17.724L12.5214 22.484C12.3805 22.7116 12.3386 22.984 12.405 23.2415C12.4713 23.499 12.6404 23.7204 12.8751 23.857C13.1097 23.9936 13.3908 24.0342 13.6563 23.9699C13.9218 23.9055 14.1501 23.7416 14.291 23.514L17.3847 18.514C17.4806 18.3587 17.5312 18.181 17.5312 18V11ZM1.77367 10.774C1.24002 10.3239 0.807573 9.77209 0.503229 9.15297C0.198885 8.53386 0.0291489 7.86064 0.00457746 7.1752C-0.019994 6.48975 0.101124 5.80674 0.3604 5.16862C0.619676 4.53051 1.01156 3.95094 1.5117 3.46596C2.01183 2.98099 2.6095 2.60098 3.26756 2.34956C3.92562 2.09814 4.62998 1.98069 5.33684 2.00452C6.04371 2.02834 6.73796 2.19294 7.37642 2.48806C8.01489 2.78318 8.58391 3.20252 9.04811 3.72C5.91343 5.26406 3.36598 7.73431 1.77367 10.774ZM23.9517 3.72C24.4159 3.20252 24.9849 2.78318 25.6234 2.48806C26.2619 2.19294 26.9561 2.02834 27.663 2.00452C28.3699 1.98069 29.0742 2.09814 29.7323 2.34956C30.3903 2.60098 30.988 2.98099 31.4881 3.46596C31.9883 3.95094 32.3802 4.53051 32.6394 5.16862C32.8987 5.80674 33.0198 6.48975 32.9953 7.1752C32.9707 7.86064 32.801 8.53386 32.4966 9.15297C32.1923 9.77209 31.7598 10.3239 31.2262 10.774C29.6339 7.73431 27.0864 5.26406 23.9517 3.72Z" fill="white"/>
</g>
<defs>
<clipPath id="clip0_399_1727">
<rect width="33" height="32" fill="white"/>
</clipPath>
</defs>
</svg>
