<svg width="30" height="32" viewBox="0 0 30 32" fill="none" xmlns="http://www.w3.org/2000/svg">
<g clip-path="url(#clip0_399_1748)">
<path d="M15 32.0003C15.9946 32.0003 16.9484 31.5789 17.6516 30.8287C18.3549 30.0786 18.75 29.0611 18.75 28.0003H11.25C11.25 29.0611 11.6451 30.0786 12.3483 30.8287C13.0516 31.5789 14.0054 32.0003 15 32.0003ZM16.8656 2.19828C16.8918 1.92019 16.863 1.63934 16.7812 1.37383C16.6993 1.10833 16.5662 0.864064 16.3905 0.656801C16.2147 0.449538 16.0001 0.283874 15.7606 0.170494C15.5211 0.0571141 15.262 -0.00146484 15 -0.00146484C14.738 -0.00146484 14.4789 0.0571141 14.2394 0.170494C13.9999 0.283874 13.7853 0.449538 13.6095 0.656801C13.4338 0.864064 13.3007 1.10833 13.2188 1.37383C13.137 1.63934 13.1082 1.92019 13.1344 2.19828C11.0148 2.65739 9.10919 3.88411 7.74059 5.67055C6.37199 7.45698 5.62457 9.69323 5.625 12.0003C5.625 14.1963 4.6875 24.0003 1.875 26.0003H28.125C25.3125 24.0003 24.375 14.1963 24.375 12.0003C24.375 7.16028 21.15 3.12028 16.8656 2.19828Z" fill="white"/>
</g>
<defs>
<clipPath id="clip0_399_1748">
<rect width="30" height="32" fill="white"/>
</clipPath>
</defs>
</svg>
