<svg width="25" height="24" viewBox="0 0 25 24" fill="none" xmlns="http://www.w3.org/2000/svg">
<path d="M14.6953 1.575C14.05 -0.525 10.95 -0.525 10.3047 1.575L10.1484 2.085C10.052 2.39939 9.88352 2.68908 9.6553 2.93282C9.42708 3.17656 9.14492 3.36817 8.82952 3.4936C8.51412 3.61902 8.17348 3.67509 7.83257 3.65768C7.49166 3.64028 7.15914 3.54984 6.85938 3.393L6.375 3.138C4.37031 2.091 2.17812 4.1955 3.27031 6.1185L3.53438 6.585C4.23125 7.815 3.57031 9.3465 2.17188 9.7425L1.64062 9.8925C-0.546875 10.512 -0.546875 13.488 1.64062 14.1075L2.17188 14.2575C2.49937 14.3501 2.80112 14.5118 3.05502 14.7309C3.30891 14.95 3.50851 15.2209 3.63916 15.5237C3.76982 15.8264 3.82822 16.1535 3.81009 16.4807C3.79196 16.808 3.69775 17.1272 3.53438 17.415L3.26875 17.88C2.17812 19.8045 4.37031 21.909 6.37344 20.8605L6.85938 20.607C7.15914 20.4502 7.49166 20.3597 7.83257 20.3423C8.17348 20.3249 8.51412 20.381 8.82952 20.5064C9.14492 20.6318 9.42708 20.8234 9.6553 21.0672C9.88352 21.3109 10.052 21.6006 10.1484 21.915L10.3047 22.425C10.95 24.525 14.05 24.525 14.6953 22.425L14.8516 21.915C14.948 21.6006 15.1165 21.3109 15.3447 21.0672C15.5729 20.8234 15.8551 20.6318 16.1705 20.5064C16.4859 20.381 16.8265 20.3249 17.1674 20.3423C17.5083 20.3597 17.8409 20.4502 18.1406 20.607L18.625 20.862C20.6297 21.909 22.8219 19.8045 21.7297 17.8815L21.4656 17.415C21.3023 17.1272 21.208 16.808 21.1899 16.4807C21.1718 16.1535 21.2302 15.8264 21.3608 15.5237C21.4915 15.2209 21.6911 14.95 21.945 14.7309C22.1989 14.5118 22.5006 14.3501 22.8281 14.2575L23.3594 14.1075C25.5469 13.488 25.5469 10.512 23.3594 9.8925L22.8281 9.7425C22.5006 9.64994 22.1989 9.48818 21.945 9.26909C21.6911 9.05 21.4915 8.77913 21.3608 8.47634C21.2302 8.17356 21.1718 7.84654 21.1899 7.51927C21.208 7.192 21.3023 6.87277 21.4656 6.585L21.7313 6.12C22.8219 4.1955 20.6297 2.091 18.6266 3.1395L18.1406 3.393C17.8409 3.54984 17.5083 3.64028 17.1674 3.65768C16.8265 3.67509 16.4859 3.61902 16.1705 3.4936C15.8551 3.36817 15.5729 3.17656 15.3447 2.93282C15.1165 2.68908 14.948 2.39939 14.8516 2.085L14.6953 1.575ZM12.5 16.395C11.2858 16.395 10.1213 15.932 9.26278 15.1077C8.40421 14.2835 7.92188 13.1656 7.92188 12C7.92188 10.8344 8.40421 9.71649 9.26278 8.89227C10.1213 8.06804 11.2858 7.605 12.5 7.605C13.7138 7.605 14.8778 8.06789 15.7361 8.89183C16.5944 9.71577 17.0766 10.8333 17.0766 11.9985C17.0766 13.1637 16.5944 14.2812 15.7361 15.1052C14.8778 15.9291 13.7138 16.392 12.5 16.392V16.395Z" fill="white"/>
</svg>
