<svg width="22" height="22" viewBox="0 0 22 22" fill="none" xmlns="http://www.w3.org/2000/svg">
<g clip-path="url(#clip0_399_1745)">
<path d="M8.25 0.382883C8.38388 0.546146 8.46588 0.745707 8.48549 0.95593C8.50509 1.16615 8.46139 1.37743 8.36 1.56263C7.56461 3.02199 7.14944 4.6581 7.15275 6.32013C7.15275 11.849 11.66 16.326 17.215 16.326C17.941 16.3251 18.6436 16.2518 19.3229 16.106C19.5307 16.0616 19.7469 16.079 19.9449 16.1563C20.1429 16.2335 20.3138 16.3671 20.4366 16.5405C20.5665 16.721 20.6328 16.9395 20.6251 17.1617C20.6174 17.384 20.5361 17.5974 20.394 17.7684C19.3155 19.093 17.955 20.1603 16.4117 20.8925C14.8684 21.6247 13.1812 22.0032 11.473 22.0006C5.13425 22.0006 0 16.8939 0 10.6019C0 5.86638 2.90675 1.80463 7.0455 0.0831332C7.25159 -0.00445427 7.48059 -0.0225785 7.6979 0.0314994C7.9152 0.0855773 8.109 0.208918 8.25 0.382883ZM6.67975 1.80326C5.08843 2.65701 3.7581 3.92591 2.83012 5.47512C1.90215 7.02434 1.41117 8.796 1.40937 10.6019C1.40937 16.1294 5.918 20.6064 11.473 20.6064C12.8032 20.6084 14.1206 20.3467 15.349 19.8364C16.5775 19.3262 17.6926 18.5775 18.6299 17.6336C18.166 17.6914 17.6944 17.7203 17.215 17.7203C10.8763 17.7203 5.74337 12.6135 5.74337 6.32151C5.74337 4.71688 6.07612 3.18926 6.67975 1.80326Z" fill="white"/>
<path d="M14.8417 4.32839C14.8615 4.26885 14.8994 4.21703 14.9503 4.18031C15.0011 4.14358 15.0623 4.12381 15.125 4.12381C15.1877 4.12381 15.2488 4.14358 15.2997 4.18031C15.3505 4.21703 15.3885 4.26885 15.4082 4.32839L15.9404 5.92614C16.1782 6.63839 16.7365 7.19664 17.4487 7.43452L19.0465 7.96664C19.106 7.98636 19.1578 8.02434 19.1946 8.07519C19.2313 8.12604 19.2511 8.18717 19.2511 8.24989C19.2511 8.31262 19.2313 8.37375 19.1946 8.4246C19.1578 8.47544 19.106 8.51343 19.0465 8.53314L17.4487 9.06527C17.0972 9.18192 16.7779 9.37903 16.516 9.6409C16.2541 9.90277 16.057 10.2222 15.9404 10.5736L15.4082 12.1714C15.3885 12.2309 15.3505 12.2828 15.2997 12.3195C15.2488 12.3562 15.1877 12.376 15.125 12.376C15.0623 12.376 15.0011 12.3562 14.9503 12.3195C14.8994 12.2828 14.8615 12.2309 14.8417 12.1714L14.3096 10.5736C14.193 10.2222 13.9958 9.90277 13.734 9.6409C13.4721 9.37903 13.1527 9.18192 12.8012 9.06527L11.2035 8.53314C11.1439 8.51343 11.0921 8.47544 11.0554 8.4246C11.0187 8.37375 10.9989 8.31262 10.9989 8.24989C10.9989 8.18717 11.0187 8.12604 11.0554 8.07519C11.0921 8.02434 11.1439 7.98636 11.2035 7.96664L12.8012 7.43452C13.1527 7.31787 13.4721 7.12076 13.734 6.85889C13.9958 6.59702 14.193 6.27763 14.3096 5.92614L14.8417 4.32839ZM19.0616 0.136019C19.0752 0.0968679 19.1006 0.0629186 19.1344 0.0388914C19.1681 0.0148642 19.2085 0.00195312 19.25 0.00195312C19.2914 0.00195313 19.3318 0.0148642 19.3656 0.0388914C19.3994 0.0629186 19.4248 0.0968679 19.4384 0.136019L19.7931 1.20027C19.9512 1.67602 20.3239 2.04864 20.7996 2.20677L21.8639 2.56152C21.903 2.57509 21.937 2.60053 21.961 2.63429C21.985 2.66805 21.9979 2.70846 21.9979 2.74989C21.9979 2.79133 21.985 2.83174 21.961 2.8655C21.937 2.89926 21.903 2.9247 21.8639 2.93827L20.7996 3.29302C20.5654 3.37139 20.3525 3.5031 20.1779 3.67777C20.0032 3.85243 19.8715 4.06527 19.7931 4.29952L19.4384 5.36377C19.4248 5.40292 19.3994 5.43687 19.3656 5.4609C19.3318 5.48492 19.2914 5.49784 19.25 5.49784C19.2085 5.49784 19.1681 5.48492 19.1344 5.4609C19.1006 5.43687 19.0752 5.40292 19.0616 5.36377L18.7069 4.29952C18.6285 4.06527 18.4968 3.85243 18.3221 3.67777C18.1474 3.5031 17.9346 3.37139 17.7004 3.29302L16.6361 2.93827C16.597 2.9247 16.563 2.89926 16.539 2.8655C16.515 2.83174 16.502 2.79133 16.502 2.74989C16.502 2.70846 16.515 2.66805 16.539 2.63429C16.563 2.60053 16.597 2.57509 16.6361 2.56152L17.7004 2.20677C18.1761 2.04864 18.5487 1.67602 18.7069 1.20027L19.0616 0.136019Z" fill="white"/>
</g>
<defs>
<clipPath id="clip0_399_1745">
<rect width="22" height="22" fill="white"/>
</clipPath>
</defs>
</svg>
