<svg width="34" height="32" viewBox="0 0 34 32" fill="none" xmlns="http://www.w3.org/2000/svg">
<path d="M33.2097 15.9688C33.2097 17.0938 32.3488 17.975 31.3732 17.975H29.5368L29.5769 27.9875C29.5769 28.1562 29.5655 28.325 29.5482 28.4937V29.5C29.5482 30.8813 28.521 32 27.2527 32H26.3345C26.2713 32 26.2082 32 26.1451 31.9937C26.0647 32 25.9844 32 25.904 32H24.0389H22.6616C21.3933 32 20.366 30.8813 20.366 29.5V28V24C20.366 22.8937 19.5453 22 18.5295 22H14.8566C13.8409 22 13.0202 22.8937 13.0202 24V28V29.5C13.0202 30.8813 11.9929 32 10.7246 32H9.34729H7.51658C7.4305 32 7.34441 31.9937 7.25833 31.9875C7.18946 31.9937 7.12059 32 7.05173 32H6.1335C4.8652 32 3.83794 30.8813 3.83794 29.5V22.5C3.83794 22.4438 3.83794 22.3813 3.84368 22.325V17.975H2.00149C0.968486 17.975 0.165039 17.1 0.165039 15.9688C0.165039 15.4062 0.337206 14.9062 0.73893 14.4688L15.4535 0.5C15.8552 0.0625 16.3143 0 16.716 0C17.1178 0 17.5769 0.125 17.9212 0.4375L32.5784 14.4688C33.0375 14.9062 33.2671 15.4062 33.2097 15.9688Z" fill="white"/>
</svg>
