<svg width="43" height="43" viewBox="0 0 43 43" fill="none" xmlns="http://www.w3.org/2000/svg">
<g clip-path="url(#clip0_399_1738)">
<path d="M29.5625 16.125C29.5625 18.2633 28.7131 20.314 27.201 21.826C25.689 23.3381 23.6383 24.1875 21.5 24.1875C19.3617 24.1875 17.311 23.3381 15.799 21.826C14.2869 20.314 13.4375 18.2633 13.4375 16.125C13.4375 13.9867 14.2869 11.936 15.799 10.424C17.311 8.91194 19.3617 8.0625 21.5 8.0625C23.6383 8.0625 25.689 8.91194 27.201 10.424C28.7131 11.936 29.5625 13.9867 29.5625 16.125Z" fill="white"/>
<path fill-rule="evenodd" clip-rule="evenodd" d="M0 21.5C0 15.7978 2.26517 10.3292 6.2972 6.2972C10.3292 2.26517 15.7978 0 21.5 0C27.2022 0 32.6708 2.26517 36.7028 6.2972C40.7348 10.3292 43 15.7978 43 21.5C43 27.2022 40.7348 32.6708 36.7028 36.7028C32.6708 40.7348 27.2022 43 21.5 43C15.7978 43 10.3292 40.7348 6.2972 36.7028C2.26517 32.6708 0 27.2022 0 21.5ZM21.5 2.6875C17.9573 2.68769 14.4866 3.68822 11.4875 5.57395C8.4883 7.45967 6.08257 10.1539 4.54715 13.3466C3.01173 16.5394 2.40904 20.1007 2.80843 23.6209C3.20783 27.141 4.59308 30.4768 6.80475 33.2444C8.71288 30.1699 12.9134 26.875 21.5 26.875C30.0866 26.875 34.2844 30.1672 36.1953 33.2444C38.4069 30.4768 39.7922 27.141 40.1916 23.6209C40.591 20.1007 39.9883 16.5394 38.4528 13.3466C36.9174 10.1539 34.5117 7.45967 31.5125 5.57395C28.5134 3.68822 25.0427 2.68769 21.5 2.6875Z" fill="white"/>
</g>
<defs>
<clipPath id="clip0_399_1738">
<rect width="43" height="43" fill="white"/>
</clipPath>
</defs>
</svg>
