<svg width="32" height="32" viewBox="0 0 32 32" fill="none" xmlns="http://www.w3.org/2000/svg">
<g clip-path="url(#clip0_399_1736)">
<path d="M0.25625 2.3875C0.0875 2.1375 0 1.8375 0 1.5375C0 0.6875 0.6875 0 1.5375 0H8.36875C9.06875 0 9.725 0.36875 10.0813 0.96875L14.3625 8.1C11.35 8.48125 8.65625 9.8875 6.65 11.9688L0.25625 2.3875ZM31.7375 2.3875L25.35 11.9688C23.3438 9.8875 20.65 8.48125 17.6375 8.1L21.9188 0.96875C22.2812 0.36875 22.9312 0 23.6313 0H30.4625C31.3125 0 32 0.6875 32 1.5375C32 1.8375 31.9125 2.1375 31.7437 2.3875H31.7375ZM5 21C5 18.0826 6.15893 15.2847 8.22183 13.2218C10.2847 11.1589 13.0826 10 16 10C18.9174 10 21.7153 11.1589 23.7782 13.2218C25.8411 15.2847 27 18.0826 27 21C27 23.9174 25.8411 26.7153 23.7782 28.7782C21.7153 30.8411 18.9174 32 16 32C13.0826 32 10.2847 30.8411 8.22183 28.7782C6.15893 26.7153 5 23.9174 5 21ZM16.525 15.0688C16.3125 14.6313 15.6938 14.6313 15.475 15.0688L14.075 17.9062C13.9875 18.0812 13.825 18.2 13.6375 18.225L10.5 18.6812C10.0188 18.75 9.83125 19.3375 10.175 19.6812L12.4438 21.8937C12.5813 22.0312 12.6438 22.2188 12.6125 22.4125L12.075 25.5312C11.9937 26.0063 12.4938 26.375 12.925 26.15L15.725 24.675C15.8938 24.5875 16.1 24.5875 16.2687 24.675L19.0688 26.15C19.5 26.375 20 26.0125 19.9188 25.5312L19.3813 22.4125C19.35 22.225 19.4125 22.0312 19.55 21.8937L21.8188 19.6812C22.1688 19.3438 21.975 18.7563 21.4937 18.6812L18.3625 18.225C18.175 18.2 18.0062 18.075 17.925 17.9062L16.525 15.0688Z" fill="white"/>
</g>
<defs>
<clipPath id="clip0_399_1736">
<rect width="32" height="32" fill="white"/>
</clipPath>
</defs>
</svg>
