<svg width="32" height="32" viewBox="0 0 32 32" fill="none" xmlns="http://www.w3.org/2000/svg">
<g clip-path="url(#clip0_399_1729)">
<path d="M16.1556 3.03711L20.5111 4.89336L16 6.84336L11.4889 4.89336L15.8444 3.03711C15.9444 2.99336 16.0556 2.99336 16.1611 3.03711H16.1556ZM7.55556 5.78086V12.7934C7.48333 12.8184 7.41111 12.8434 7.33889 12.8746L2.00556 15.1496C0.8 15.6621 0 16.9684 0 18.4184V25.8684C0 27.2559 0.727778 28.5121 1.86111 29.0746L7.19444 31.7121C7.99444 32.1059 8.9 32.1059 9.7 31.7121L16 28.5934L22.3056 31.7121C23.1056 32.1059 24.0111 32.1059 24.8111 31.7121L30.1444 29.0746C31.2722 28.5184 32.0056 27.2559 32.0056 25.8684V18.4184C32.0056 16.9621 31.2056 15.6621 30 15.1434L24.6667 12.8684C24.5944 12.8371 24.5222 12.8121 24.45 12.7871V5.78086C24.45 4.32461 23.65 3.02461 22.4444 2.50586L17.1111 0.230859C16.4 -0.0691406 15.6167 -0.0691406 14.9056 0.230859L9.57222 2.50586C8.35556 3.02461 7.55556 4.33086 7.55556 5.78086ZM21.7778 13.1621L17.2 15.1121V9.53711L21.7778 7.56211V13.1621ZM8.6 15.6809L12.9556 17.5371L8.44444 19.4809L3.93333 17.5371L8.28889 15.6809C8.38889 15.6371 8.5 15.6371 8.60556 15.6809H8.6ZM9.64444 28.4559V22.1746L14.2222 20.1996V26.1934L9.64444 28.4559ZM23.4 15.6809C23.5 15.6371 23.6111 15.6371 23.7167 15.6809L28.0722 17.5371L23.5556 19.4809L19.0444 17.5371L23.4 15.6809ZM29.0667 26.3246L24.7556 28.4559V22.1746L29.3333 20.1996V25.8684C29.3333 26.0684 29.2278 26.2434 29.0667 26.3246Z" fill="white"/>
</g>
<defs>
<clipPath id="clip0_399_1729">
<rect width="32" height="32" fill="white"/>
</clipPath>
</defs>
</svg>
