<svg width="32" height="32" viewBox="0 0 32 32" fill="none" xmlns="http://www.w3.org/2000/svg">
<path d="M4.64516 4C4.64516 2.89375 5.3371 2 6.19355 2H7.74194C8.59839 2 9.29032 2.89375 9.29032 4V14V18V28C9.29032 29.1063 8.59839 30 7.74194 30H6.19355C5.3371 30 4.64516 29.1063 4.64516 28V24H3.09677C2.24032 24 1.54839 23.1063 1.54839 22V18C0.691935 18 0 17.1062 0 16C0 14.8938 0.691935 14 1.54839 14V10C1.54839 8.89375 2.24032 8 3.09677 8H4.64516V4ZM26.3226 4V8H27.871C28.7274 8 29.4194 8.89375 29.4194 10V14C30.2758 14 30.9677 14.8938 30.9677 16C30.9677 17.1062 30.2758 18 29.4194 18V22C29.4194 23.1063 28.7274 24 27.871 24H26.3226V28C26.3226 29.1063 25.6306 30 24.7742 30H23.2258C22.3694 30 21.6774 29.1063 21.6774 28V18V14V4C21.6774 2.89375 22.3694 2 23.2258 2H24.7742C25.6306 2 26.3226 2.89375 26.3226 4ZM20.129 14V18H10.8387V14H20.129Z" fill="white"/>
</svg>
