<svg width="37" height="30" viewBox="0 0 37 30" fill="none" xmlns="http://www.w3.org/2000/svg">
<path fill-rule="evenodd" clip-rule="evenodd" d="M0.28125 27.5C0.28125 27.0856 0.455748 26.6882 0.766355 26.3951C1.07696 26.1021 1.49824 25.9375 1.9375 25.9375H35.0625C35.5018 25.9375 35.923 26.1021 36.2336 26.3951C36.5443 26.6882 36.7188 27.0856 36.7188 27.5C36.7188 27.9144 36.5443 28.3118 36.2336 28.6049C35.923 28.8979 35.5018 29.0625 35.0625 29.0625H1.9375C1.49824 29.0625 1.07696 28.8979 0.766355 28.6049C0.455748 28.3118 0.28125 27.9144 0.28125 27.5ZM0.28125 15C0.28125 14.5856 0.455748 14.1882 0.766355 13.8951C1.07696 13.6021 1.49824 13.4375 1.9375 13.4375H35.0625C35.5018 13.4375 35.923 13.6021 36.2336 13.8951C36.5443 14.1882 36.7188 14.5856 36.7188 15C36.7188 15.4144 36.5443 15.8118 36.2336 16.1049C35.923 16.3979 35.5018 16.5625 35.0625 16.5625H1.9375C1.49824 16.5625 1.07696 16.3979 0.766355 16.1049C0.455748 15.8118 0.28125 15.4144 0.28125 15ZM0.28125 2.5C0.28125 2.0856 0.455748 1.68817 0.766355 1.39515C1.07696 1.10212 1.49824 0.9375 1.9375 0.9375H35.0625C35.5018 0.9375 35.923 1.10212 36.2336 1.39515C36.5443 1.68817 36.7188 2.0856 36.7188 2.5C36.7188 2.9144 36.5443 3.31183 36.2336 3.60485C35.923 3.89788 35.5018 4.0625 35.0625 4.0625H1.9375C1.49824 4.0625 1.07696 3.89788 0.766355 3.60485C0.455748 3.31183 0.28125 2.9144 0.28125 2.5Z" fill="white"/>
</svg>
