<svg width="100" height="132" viewBox="0 0 100 132" fill="none" xmlns="http://www.w3.org/2000/svg">
<path d="M76.0909 57.5047C83.5487 53.1546 91.0065 48.8045 99.7063 43.73C99.7063 57.8288 100.11 71.0449 99.9706 84.1492C99.7063 108.949 98.8677 106.18 86.6073 114.517C75.8135 121.856 70.2267 126.031 58.0643 132C57.5119 114.544 47.9893 97.001 48.412 80.2561C48.4834 77.426 49.4353 71.8913 53.582 70.772C59.9342 66.0185 66.5506 63.3229 73.7331 59.0832C74.8311 58.5821 75.461 58.0434 76.0909 57.5047Z" fill="#5110A3"/>
<path d="M25.8066 113.374C17.3747 108.723 19.3549 109.325 3.65885 97.4064C1.68619 96.1678 0.251125 92.5343 0.208492 89.9746C-0.0834317 72.4489 -0.0552459 54.9141 0.208621 37.3874C0.242842 35.1139 1.60865 31.8633 3.39318 30.7706C18.4932 21.5251 33.8124 12.6383 49.1439 3.78018C50.343 3.08739 53.6383 0.186564 55.6454 0C56.1325 9.78553 54.9992 18.9119 55.6454 29.1534C48.5625 34.5883 32.6175 42.661 25.8066 47.7791C23.1597 49.7681 22.6757 54.2119 22.5807 57.4969C22.5807 80.1718 25.8534 95.1051 25.8066 113.374Z" fill="white"/>
<path d="M25.8066 113.374C17.3747 108.723 19.3549 109.325 3.65885 97.4064C1.68619 96.1678 0.251125 92.5343 0.208492 89.9746C-0.0834317 72.4489 -0.0552459 54.9141 0.208621 37.3874C0.242842 35.1139 1.60865 31.8633 3.39318 30.7706C18.4932 21.5251 33.8124 12.6383 49.1439 3.78018C50.343 3.08739 53.6383 0.186564 55.6454 0C56.1325 9.78553 54.9992 18.9119 55.6454 29.1534C48.5625 34.5883 32.6175 42.661 25.8066 47.7791C23.1597 49.7681 22.6757 54.2119 22.5807 57.4969C22.5807 80.1718 25.8534 95.1051 25.8066 113.374Z" fill="white"/>
<path d="M24.1937 114.184C16.1291 109.325 16.1291 110.135 3.65885 97.4064C1.68619 96.1678 0.251125 92.5343 0.208492 89.9745C-0.0834317 72.4489 -0.0552459 54.9141 0.208621 37.3874C0.242842 35.1139 1.60865 31.8633 3.39318 30.7706C18.4932 21.5251 33.8124 12.6383 49.1439 3.78018C50.343 3.08739 53.6383 0.186564 55.6454 0C56.1325 9.78553 54.9992 18.9119 55.6454 29.1534C48.5625 34.5883 32.6175 42.661 25.8066 47.7791C23.1597 49.7681 22.6757 54.2119 22.5807 57.4969C22.5807 80.1718 24.2405 95.9149 24.1937 114.184Z" fill="#E3BFFF"/>
<path d="M41.1292 123.902C32.2582 119.853 24.7062 114.667 16.5621 109.554C14.5895 108.315 13.1544 103.872 13.1118 101.312C12.8199 83.7863 12.848 66.2515 13.1119 48.7248C13.1461 46.4513 14.5119 43.2007 16.2965 42.108C31.3965 32.8625 46.7157 23.9757 62.0472 15.1176C63.2463 14.4248 66.5416 11.524 68.5487 11.3374C69.0358 21.1229 67.9025 34.2984 68.5487 44.5399C61.4658 49.9748 53.9892 53.4554 47.1784 58.5735C44.5315 60.5625 42.2033 64.8044 42.1084 68.0895C41.5806 86.3446 41.176 105.633 41.1292 123.902Z" fill="#BB67FD"/>
<path d="M32.5633 119.573C32.2596 100.874 32.0562 82.5977 32.584 64.3425C32.679 61.0575 35.0072 56.8155 37.654 54.8265C44.4649 49.7084 52.033 45.6063 59.6171 40.6954C63.0112 38.4221 66.0867 36.5516 70.065 34.106C74.9137 31.3358 80.4336 26.7114 84.7784 24.2944C85.374 26.0648 84.2891 29.9486 84.7784 31.403C84.6831 38.5033 84.5878 45.6037 84.4693 53.8778C84.3497 55.6942 84.2534 56.3367 84.157 56.9793C77.2176 61.4541 70.0307 65.5995 63.4656 70.5727C60.9848 72.4519 58.5449 76.2085 58.4711 79.1693C58.0342 96.6876 58.0456 113.74 58.0648 132C49.5905 128.326 41.3786 124.406 32.5633 119.573Z" fill="#821ED0"/>
<path d="M76.0909 57.5047C83.5487 53.1546 91.0065 48.8045 99.7063 43.73C99.7063 57.8288 100.11 71.0449 99.9706 84.1492C99.7063 108.949 98.8677 106.18 86.6073 114.517C75.8135 121.856 70.2267 126.031 58.0643 132C57.5119 114.544 47.9893 97.001 48.412 80.2561C48.4834 77.426 49.4353 71.8913 53.582 70.772C59.9342 66.0185 66.5506 63.3229 73.7331 59.0832C74.8311 58.5821 75.461 58.0434 76.0909 57.5047Z" fill="#C5C5C5"/>
<path d="M25.8066 113.374C17.3747 108.723 19.3549 109.325 3.65885 97.4064C1.68619 96.1678 0.251125 92.5343 0.208492 89.9746C-0.0834317 72.4489 -0.0552459 54.9141 0.208621 37.3874C0.242842 35.1139 1.60865 31.8633 3.39318 30.7706C18.4932 21.5251 33.8124 12.6383 49.1439 3.78018C50.343 3.08739 53.6383 0.186564 55.6454 0C56.1325 9.78553 54.9992 18.9119 55.6454 29.1534C48.5625 34.5883 32.6175 42.661 25.8066 47.7791C23.1597 49.7681 22.6757 54.2119 22.5807 57.4969C22.5807 80.1718 25.8534 95.1051 25.8066 113.374Z" fill="white"/>
<path d="M25.8066 113.374C17.3747 108.723 19.3549 109.325 3.65885 97.4064C1.68619 96.1678 0.251125 92.5343 0.208492 89.9746C-0.0834317 72.4489 -0.0552459 54.9141 0.208621 37.3874C0.242842 35.1139 1.60865 31.8633 3.39318 30.7706C18.4932 21.5251 33.8124 12.6383 49.1439 3.78018C50.343 3.08739 53.6383 0.186564 55.6454 0C56.1325 9.78553 54.9992 18.9119 55.6454 29.1534C48.5625 34.5883 32.6175 42.661 25.8066 47.7791C23.1597 49.7681 22.6757 54.2119 22.5807 57.4969C22.5807 80.1718 25.8534 95.1051 25.8066 113.374Z" fill="white"/>
<path d="M24.1937 114.184C16.1291 109.325 16.1291 110.135 3.65885 97.4064C1.68619 96.1678 0.251125 92.5343 0.208492 89.9745C-0.0834317 72.4489 -0.0552459 54.9141 0.208621 37.3874C0.242842 35.1139 1.60865 31.8633 3.39318 30.7706C18.4932 21.5251 33.8124 12.6383 49.1439 3.78018C50.343 3.08739 53.6383 0.186564 55.6454 0C56.1325 9.78553 54.9992 18.9119 55.6454 29.1534C48.5625 34.5883 32.6175 42.661 25.8066 47.7791C23.1597 49.7681 22.6757 54.2119 22.5807 57.4969C22.5807 80.1718 24.2405 95.9149 24.1937 114.184Z" fill="white"/>
<path d="M41.1292 123.902C32.2582 119.853 24.7062 114.667 16.5621 109.554C14.5895 108.315 13.1544 103.872 13.1118 101.312C12.8199 83.7863 12.848 66.2515 13.1119 48.7248C13.1461 46.4513 14.5119 43.2007 16.2965 42.108C31.3965 32.8625 46.7157 23.9757 62.0472 15.1176C63.2463 14.4248 66.5416 11.524 68.5487 11.3374C69.0358 21.1229 67.9025 34.2984 68.5487 44.5399C61.4658 49.9748 53.9892 53.4554 47.1784 58.5735C44.5315 60.5625 42.2033 64.8044 42.1084 68.0895C41.5806 86.3446 41.176 105.633 41.1292 123.902Z" fill="#C5C5C5"/>
<path d="M32.5633 119.573C32.2596 100.874 32.0562 82.5977 32.584 64.3425C32.679 61.0575 35.0072 56.8155 37.654 54.8265C44.4649 49.7084 52.033 45.6063 59.6171 40.6954C63.0112 38.4221 66.0867 36.5516 70.065 34.106C74.9137 31.3358 80.4336 26.7114 84.7784 24.2944C85.374 26.0648 84.2891 29.9486 84.7784 31.403C84.6831 38.5033 84.5878 45.6037 84.4693 53.8778C84.3497 55.6942 84.2534 56.3367 84.157 56.9793C77.2176 61.4541 70.0307 65.5995 63.4656 70.5727C60.9848 72.4519 58.5449 76.2085 58.4711 79.1693C58.0342 96.6876 58.0456 113.74 58.0648 132C49.5905 128.326 41.3786 124.406 32.5633 119.573Z" fill="white"/>
</svg>
